<svg width="48" height="48" viewBox="0 0 48 48" fill="none" xmlns="http://www.w3.org/2000/svg">
<path d="M24.0283 7.99651C17.6963 8.04651 12.0483 12.3565 10.5283 19.1225C6.64632 20.7545 4.02832 24.3845 4.02832 28.7465C4.02832 34.7665 8.78034 39.9965 14.6523 39.9965H34.0283C39.4963 39.9965 44.0283 36.0305 44.0283 30.9965C44.0283 27.3685 41.5263 24.2985 38.0283 22.8725C38.0323 22.5145 38.0283 22.0485 38.0283 21.9965C38.0883 14.3245 31.6103 7.93651 24.0283 7.99651ZM24.0283 15.9965L30.0523 21.9965H26.0283V29.9965C26.0283 31.1005 25.1323 31.9965 24.0283 31.9965C22.9243 31.9965 22.0283 31.1005 22.0283 29.9965V21.9965L18.0043 22.0045L24.0283 15.9965Z" fill="#BABABA"/>
</svg>
