<svg width="22" height="23" viewBox="0 0 22 23" fill="none" xmlns="http://www.w3.org/2000/svg">
<g clip-path="url(#clip0_3525_10961)">
<path d="M13.9706 19L16.9025 18.9999C17.1971 18.9996 17.4795 18.8779 17.6878 18.6616C17.8961 18.4453 18.0133 18.152 18.0136 17.8461L18.0137 15.1309C18.0137 15.036 17.9912 14.9426 17.9481 14.8589C17.905 14.7753 17.8428 14.7039 17.7668 14.6512C17.6909 14.5985 17.6036 14.566 17.5127 14.5567C17.4218 14.5474 17.3301 14.5615 17.2456 14.5978C17.0488 14.6825 16.8378 14.7259 16.6248 14.7255C15.7058 14.7255 14.9581 13.9255 14.9581 12.9423C14.9581 11.959 15.7058 11.159 16.6248 11.159C16.8378 11.1587 17.0488 11.202 17.2456 11.2867C17.3301 11.323 17.4218 11.3371 17.5127 11.3278C17.6036 11.3185 17.6909 11.286 17.7668 11.2333C17.8428 11.1806 17.905 11.1093 17.9481 11.0256C17.9912 10.9419 18.0137 10.8485 18.0137 10.7537L18.0136 8.03844C18.0133 7.73252 17.8961 7.43924 17.6878 7.22292C17.4795 7.00661 17.1971 6.88494 16.9025 6.8846L14.3874 6.88467C14.3975 6.78885 14.4026 6.69253 14.4025 6.59614C14.4025 5.9076 14.1391 5.24726 13.6703 4.76039C13.2015 4.27352 12.5656 4 11.9025 4C11.2395 4 10.6036 4.27352 10.1348 4.76039C9.66594 5.24726 9.40255 5.9076 9.40255 6.59614C9.40251 6.69253 9.40756 6.78885 9.41767 6.88467L6.90255 6.8846C6.60797 6.88494 6.32555 7.00662 6.11724 7.22293C5.90894 7.43925 5.79177 7.73253 5.79144 8.03844L5.79148 10.3618C5.69922 10.3513 5.60648 10.3461 5.51367 10.3461C4.85063 10.3461 4.21474 10.6196 3.7459 11.1065C3.27706 11.5934 3.01367 12.2537 3.01367 12.9423C3.01367 13.6308 3.27706 14.2911 3.7459 14.778C4.21474 15.2649 4.85063 15.5384 5.51367 15.5384C5.60648 15.5385 5.69922 15.5332 5.79148 15.5227L5.79144 17.8461C5.79177 18.152 5.90894 18.4453 6.11723 18.6616C6.32552 18.8779 6.60794 18.9996 6.90252 18.9999L9.8345 19" fill="#126431"/>
</g>
<defs>
<clipPath id="clip0_3525_10961">
<rect width="22" height="23" fill="white"/>
</clipPath>
</defs>
</svg>
