<svg width="30" height="31" viewBox="0 0 30 31" fill="none" xmlns="http://www.w3.org/2000/svg">
<g clip-path="url(#clip0_3525_10978)">
<path d="M20.0702 26.5L24.3703 26.4999C24.8024 26.4994 25.2166 26.3209 25.5221 26.0037C25.8276 25.6864 25.9995 25.2563 26 24.8076L26 20.8253C26 20.6861 25.967 20.5491 25.9038 20.4264C25.8407 20.3037 25.7494 20.1991 25.638 20.1218C25.5266 20.0445 25.3985 19.9969 25.2652 19.9832C25.1319 19.9695 24.9974 19.9902 24.8736 20.0435C24.5849 20.1676 24.2754 20.2313 23.963 20.2307C22.6151 20.2307 21.5185 19.0575 21.5185 17.6153C21.5185 16.1732 22.6151 14.9999 23.963 14.9999C24.2754 14.9994 24.5849 15.063 24.8736 15.1872C24.9974 15.2404 25.1319 15.2611 25.2652 15.2474C25.3985 15.2338 25.5266 15.1862 25.638 15.1089C25.7494 15.0316 25.8407 14.9269 25.9038 14.8042C25.967 14.6815 26 14.5445 26 14.4054L26 10.423C25.9995 9.97437 25.8276 9.54421 25.5221 9.22695C25.2166 8.90969 24.8023 8.73124 24.3703 8.73075L20.6815 8.73085C20.6963 8.59032 20.7037 8.44905 20.7037 8.30767C20.7037 7.29782 20.3174 6.32932 19.6297 5.61524C18.9421 4.90116 18.0095 4.5 17.037 4.5C16.0645 4.5 15.1319 4.90116 14.4443 5.61524C13.7567 6.32932 13.3703 7.29782 13.3703 8.30767C13.3703 8.44905 13.3777 8.59032 13.3925 8.73085L9.70369 8.73075C9.27164 8.73125 8.85742 8.90971 8.55191 9.22697C8.2464 9.54423 8.07455 9.97438 8.07406 10.423L8.07411 13.8307C7.9388 13.8153 7.80278 13.8076 7.66666 13.8076C6.6942 13.8076 5.76157 14.2088 5.07394 14.9229C4.38631 15.637 4 16.6055 4 17.6153C4 18.6252 4.38631 19.5937 5.07394 20.3078C5.76157 21.0218 6.6942 21.423 7.66666 21.423C7.80278 21.4231 7.9388 21.4154 8.07411 21.4L8.07406 24.8076C8.07455 25.2563 8.24639 25.6864 8.55189 26.0037C8.85738 26.3209 9.27159 26.4994 9.70364 26.4999L14.0039 26.5" fill="#ACACAC"/>
</g>
<defs>
<clipPath id="clip0_3525_10978">
<rect width="30" height="31" fill="white"/>
</clipPath>
</defs>
</svg>
