<svg width="512" height="512" version="1.1" xmlns="http://www.w3.org/2000/svg" desc="Created with imagetracer.js version 1.2.6" ><path fill="rgb(0,0,0)" stroke="rgb(0,0,0)" stroke-width="1" opacity="0.7803921568627451" d="M 85.5 0 L 94 0.5 L 85.5 1 L 85.5 0 Z " /><path fill="rgb(0,0,0)" stroke="rgb(0,0,0)" stroke-width="1" opacity="0.7803921568627451" d="M 418.5 0 L 427 0.5 L 418.5 1 L 418.5 0 Z " /><path fill="rgb(0,0,0)" stroke="rgb(0,0,0)" stroke-width="1" opacity="0.7803921568627451" d="M 78.5 1 L 81 1.5 L 78.5 2 L 78.5 1 Z " /><path fill="rgb(0,0,0)" stroke="rgb(0,0,0)" stroke-width="1" opacity="0.7803921568627451" d="M 431.5 1 L 434 1.5 L 431.5 2 L 431.5 1 Z " /><path fill="rgb(0,0,0)" stroke="rgb(0,0,0)" stroke-width="1" opacity="0.7803921568627451" d="M 48.5 12 L 47.5 14 L 48.5 12 Z " /><path fill="rgb(0,0,0)" stroke="rgb(0,0,0)" stroke-width="1" opacity="0.7803921568627451" d="M 463.5 12 L 464.5 14 L 463.5 12 Z " /><path fill="rgb(0,0,0)" stroke="rgb(0,0,0)" stroke-width="1" opacity="0.7803921568627451" d="M 43.5 15 L 42.5 17 L 43.5 15 Z " /><path fill="rgb(0,0,0)" stroke="rgb(0,0,0)" stroke-width="1" opacity="0.7803921568627451" d="M 468.5 15 L 469.5 17 L 468.5 15 Z " /><path fill="rgb(0,0,0)" stroke="rgb(0,0,0)" stroke-width="1" opacity="0.7803921568627451" d="M 39.5 18 L 38.5 20 L 39.5 18 Z " /><path fill="rgb(0,0,0)" stroke="rgb(0,0,0)" stroke-width="1" opacity="0.7803921568627451" d="M 472.5 18 L 473.5 20 L 472.5 18 Z " /><path fill="rgb(0,0,0)" stroke="rgb(0,0,0)" stroke-width="1" opacity="0.7803921568627451" d="M 35.5 21 L 30.5 27 L 35.5 21 Z " /><path fill="rgb(0,0,0)" stroke="rgb(0,0,0)" stroke-width="1" opacity="0.7803921568627451" d="M 476.5 21 L 481.5 27 L 476.5 21 Z " /><path fill="rgb(0,0,0)" stroke="rgb(0,0,0)" stroke-width="1" opacity="0.7803921568627451" d="M 26.5 30 L 21.5 36 L 26.5 30 Z " /><path fill="rgb(0,0,0)" stroke="rgb(0,0,0)" stroke-width="1" opacity="0.7803921568627451" d="M 485.5 30 L 490.5 36 L 485.5 30 Z " /><path fill="rgb(0,0,0)" stroke="rgb(0,0,0)" stroke-width="1" opacity="0.7803921568627451" d="M 19.5 38 L 18.5 40 L 19.5 38 Z " /><path fill="rgb(0,0,0)" stroke="rgb(0,0,0)" stroke-width="1" opacity="0.7803921568627451" d="M 492.5 38 L 493.5 40 L 492.5 38 Z " /><path fill="rgb(0,0,0)" stroke="rgb(0,0,0)" stroke-width="1" opacity="0.7803921568627451" d="M 16.5 42 L 15.5 44 L 16.5 42 Z " /><path fill="rgb(0,0,0)" stroke="rgb(0,0,0)" stroke-width="1" opacity="0.7803921568627451" d="M 495.5 42 L 496.5 44 L 495.5 42 Z " /><path fill="rgb(0,0,0)" stroke="rgb(0,0,0)" stroke-width="1" opacity="0.7803921568627451" d="M 13.5 47 L 12.5 49 L 13.5 47 Z " /><path fill="rgb(0,0,0)" stroke="rgb(0,0,0)" stroke-width="1" opacity="0.7803921568627451" d="M 498.5 47 L 499.5 49 L 498.5 47 Z " /><path fill="rgb(0,0,0)" stroke="rgb(0,0,0)" stroke-width="1" opacity="0.7803921568627451" d="M 1.5 78 L 2 80.5 L 1 80.5 L 1.5 78 Z " /><path fill="rgb(0,0,0)" stroke="rgb(0,0,0)" stroke-width="1" opacity="0.7803921568627451" d="M 510.5 78 L 511 80.5 L 510 80.5 L 510.5 78 Z " /><path fill="rgb(0,0,0)" stroke="rgb(0,0,0)" stroke-width="1" opacity="0.7803921568627451" d="M 0.5 85 L 1 93.5 L 0 93.5 L 0.5 85 Z " /><path fill="rgb(0,0,0)" stroke="rgb(0,0,0)" stroke-width="1" opacity="0.7803921568627451" d="M 511.5 85 L 512 93.5 L 511 93.5 L 511.5 85 Z " /><path fill="rgb(0,0,0)" stroke="rgb(0,0,0)" stroke-width="1" opacity="0.7803921568627451" d="M 122.5 105 L 125 105.5 L 122.5 106 L 122.5 105 Z " /><path fill="rgb(0,0,0)" stroke="rgb(0,0,0)" stroke-width="1" opacity="0.7803921568627451" d="M 130.5 105 L 135 105.5 L 130.5 106 L 130.5 105 Z " /><path fill="rgb(0,0,0)" stroke="rgb(0,0,0)" stroke-width="1" opacity="0.7803921568627451" d="M 387.5 105 L 391 106.5 L 389.5 106 Q 386.5 106.5 387.5 105 Z " /><path fill="rgb(0,0,0)" stroke="rgb(0,0,0)" stroke-width="1" opacity="0.7803921568627451" d="M 344.5 117 L 343.5 119 L 344.5 117 Z " /><path fill="rgb(0,0,0)" stroke="rgb(0,0,0)" stroke-width="1" opacity="0.7803921568627451" d="M 249.5 123 L 263 123.5 L 249.5 124 L 249.5 123 Z " /><path fill="rgb(0,0,0)" stroke="rgb(0,0,0)" stroke-width="1" opacity="0.7803921568627451" d="M 333.5 123 L 332.5 125 L 333.5 123 Z " /><path fill="rgb(0,0,0)" stroke="rgb(0,0,0)" stroke-width="1" opacity="0.7803921568627451" d="M 233.5 124 L 238 124.5 L 233.5 125 L 233.5 124 Z " /><path fill="rgb(0,0,0)" stroke="rgb(0,0,0)" stroke-width="1" opacity="0.7803921568627451" d="M 274.5 124 L 279 124.5 L 274.5 125 L 274.5 124 Z " /><path fill="rgb(0,0,0)" stroke="rgb(0,0,0)" stroke-width="1" opacity="0.7803921568627451" d="M 396.5 124 L 397 126.5 L 396 126.5 L 396.5 124 Z " /><path fill="rgb(0,0,0)" stroke="rgb(0,0,0)" stroke-width="1" opacity="0.7803921568627451" d="M 223.5 125 L 228 125.5 L 223.5 126 L 223.5 125 Z " /><path fill="rgb(0,0,0)" stroke="rgb(0,0,0)" stroke-width="1" opacity="0.7803921568627451" d="M 284.5 125 L 289 125.5 L 284.5 126 L 284.5 125 Z " /><path fill="rgb(0,0,0)" stroke="rgb(0,0,0)" stroke-width="1" opacity="0.7803921568627451" d="M 183.5 126 L 184.5 128 L 183.5 126 Z " /><path fill="rgb(0,0,0)" stroke="rgb(0,0,0)" stroke-width="1" opacity="0.7803921568627451" d="M 217.5 126 L 220 126.5 L 217.5 127 L 217.5 126 Z " /><path fill="rgb(0,0,0)" stroke="rgb(0,0,0)" stroke-width="1" opacity="0.7803921568627451" d="M 292.5 126 L 295 126.5 L 292.5 127 L 292.5 126 Z " /><path fill="rgb(0,0,0)" stroke="rgb(0,0,0)" stroke-width="1" opacity="0.7803921568627451" d="M 328.5 126 L 327.5 128 L 328.5 126 Z " /><path fill="rgb(0,0,0)" stroke="rgb(0,0,0)" stroke-width="1" opacity="0.7803921568627451" d="M 211.5 127 L 214 127.5 L 211.5 128 L 211.5 127 Z " /><path fill="rgb(0,0,0)" stroke="rgb(0,0,0)" stroke-width="1" opacity="0.7803921568627451" d="M 298.5 127 L 301 127.5 L 298.5 128 L 298.5 127 Z " /><path fill="rgb(0,0,0)" stroke="rgb(0,0,0)" stroke-width="1" opacity="0.7803921568627451" d="M 186.5 128 L 187.5 130 L 186.5 128 Z " /><path fill="rgb(0,0,0)" stroke="rgb(0,0,0)" stroke-width="1" opacity="0.7803921568627451" d="M 325.5 128 L 324.5 130 L 325.5 128 Z " /><path fill="rgb(0,0,0)" stroke="rgb(0,0,0)" stroke-width="1" opacity="0.7803921568627451" d="M 114.5 129 L 115 131.5 L 114 131.5 L 114.5 129 Z " /><path fill="rgb(0,0,0)" stroke="rgb(0,0,0)" stroke-width="1" opacity="0.7803921568627451" d="M 113.5 136 L 114 152.5 L 113 152.5 L 113.5 136 Z " /><path fill="rgb(0,0,0)" stroke="rgb(0,0,0)" stroke-width="1" opacity="0.7803921568627451" d="M 398.5 137 L 399 152.5 L 398 152.5 L 398.5 137 Z " /><path fill="rgb(0,0,0)" stroke="rgb(0,0,0)" stroke-width="1" opacity="0.7803921568627451" d="M 114.5 157 L 115 159.5 L 114 159.5 L 114.5 157 Z " /><path fill="rgb(0,0,0)" stroke="rgb(0,0,0)" stroke-width="1" opacity="0.7803921568627451" d="M 397.5 157 L 398 159.5 L 397 159.5 L 397.5 157 Z " /><path fill="rgb(0,0,0)" stroke="rgb(0,0,0)" stroke-width="1" opacity="0.7803921568627451" d="M 118.5 172 L 119 174.5 L 116 176.5 L 118.5 172 Z " /><path fill="rgb(0,0,0)" stroke="rgb(0,0,0)" stroke-width="1" opacity="0.7803921568627451" d="M 393.5 172 L 396 176.5 L 393 174.5 L 393.5 172 Z " /><path fill="rgb(0,0,0)" stroke="rgb(0,0,0)" stroke-width="1" opacity="0.7803921568627451" d="M 113.5 180 L 111.5 183 L 113.5 180 Z " /><path fill="rgb(0,0,0)" stroke="rgb(0,0,0)" stroke-width="1" opacity="0.7803921568627451" d="M 398.5 180 L 400.5 183 L 398.5 180 Z " /><path fill="rgb(0,0,0)" stroke="rgb(0,0,0)" stroke-width="1" opacity="0.7803921568627451" d="M 110.5 184 L 109.5 186 L 110.5 184 Z " /><path fill="rgb(0,0,0)" stroke="rgb(0,0,0)" stroke-width="1" opacity="0.7803921568627451" d="M 401.5 184 L 402.5 186 L 401.5 184 Z " /><path fill="rgb(0,0,0)" stroke="rgb(0,0,0)" stroke-width="1" opacity="0.7803921568627451" d="M 108.5 187 L 107.5 189 L 108.5 187 Z " /><path fill="rgb(0,0,0)" stroke="rgb(0,0,0)" stroke-width="1" opacity="0.7803921568627451" d="M 403.5 187 L 404.5 189 L 403.5 187 Z " /><path fill="rgb(0,0,0)" stroke="rgb(0,0,0)" stroke-width="1" opacity="0.7803921568627451" d="M 105.5 192 L 104.5 194 L 105.5 192 Z " /><path fill="rgb(0,0,0)" stroke="rgb(0,0,0)" stroke-width="1" opacity="0.7803921568627451" d="M 406.5 192 L 407.5 194 L 406.5 192 Z " /><path fill="rgb(0,0,0)" stroke="rgb(0,0,0)" stroke-width="1" opacity="0.7803921568627451" d="M 93.5 226 L 94 229.5 L 93 229.5 L 93.5 226 Z " /><path fill="rgb(0,0,0)" stroke="rgb(0,0,0)" stroke-width="1" opacity="0.7803921568627451" d="M 418.5 226 L 419 229.5 L 418 229.5 L 418.5 226 Z " /><path fill="rgb(0,0,0)" stroke="rgb(0,0,0)" stroke-width="1" opacity="0.7803921568627451" d="M 92.5 237 L 93 249.5 L 92 249.5 L 92.5 237 Z " /><path fill="rgb(0,0,0)" stroke="rgb(0,0,0)" stroke-width="1" opacity="0.7803921568627451" d="M 419.5 237 L 420 249.5 L 419 249.5 L 419.5 237 Z " /><path fill="rgb(0,0,0)" stroke="rgb(0,0,0)" stroke-width="1" opacity="0.7803921568627451" d="M 93.5 259 L 94 263.5 L 93 263.5 L 93.5 259 Z " /><path fill="rgb(0,0,0)" stroke="rgb(0,0,0)" stroke-width="1" opacity="0.7803921568627451" d="M 418.5 259 L 419 263.5 L 418 263.5 L 418.5 259 Z " /><path fill="rgb(0,0,0)" stroke="rgb(0,0,0)" stroke-width="1" opacity="0.7803921568627451" d="M 94.5 269 L 95 271.5 L 94 271.5 L 94.5 269 Z " /><path fill="rgb(0,0,0)" stroke="rgb(0,0,0)" stroke-width="1" opacity="0.7803921568627451" d="M 417.5 269 L 418 271.5 L 417 271.5 L 417.5 269 Z " /><path fill="rgb(0,0,0)" stroke="rgb(0,0,0)" stroke-width="1" opacity="0.7803921568627451" d="M 95.5 275 L 96 277.5 L 95 277.5 L 95.5 275 Z " /><path fill="rgb(0,0,0)" stroke="rgb(0,0,0)" stroke-width="1" opacity="0.7803921568627451" d="M 416.5 275 L 417 277.5 L 416 277.5 L 416.5 275 Z " /><path fill="rgb(0,0,0)" stroke="rgb(0,0,0)" stroke-width="1" opacity="0.7803921568627451" d="M 404.5 313 L 403.5 315 L 404.5 313 Z " /><path fill="rgb(0,0,0)" stroke="rgb(0,0,0)" stroke-width="1" opacity="0.7803921568627451" d="M 111.5 320 L 112.5 322 L 111.5 320 Z " /><path fill="rgb(0,0,0)" stroke="rgb(0,0,0)" stroke-width="1" opacity="0.7803921568627451" d="M 400.5 320 L 399.5 322 L 400.5 320 Z " /><path fill="rgb(0,0,0)" stroke="rgb(0,0,0)" stroke-width="1" opacity="0.7803921568627451" d="M 114.5 324 L 115.5 326 L 114.5 324 Z " /><path fill="rgb(0,0,0)" stroke="rgb(0,0,0)" stroke-width="1" opacity="0.7803921568627451" d="M 397.5 324 L 396.5 326 L 397.5 324 Z " /><path fill="rgb(0,0,0)" stroke="rgb(0,0,0)" stroke-width="1" opacity="0.7803921568627451" d="M 116.5 327 L 120.5 332 L 116.5 327 Z " /><path fill="rgb(0,0,0)" stroke="rgb(0,0,0)" stroke-width="1" opacity="0.7803921568627451" d="M 395.5 327 L 390.5 333 L 395.5 327 Z " /><path fill="rgb(0,0,0)" stroke="rgb(0,0,0)" stroke-width="1" opacity="0.7803921568627451" d="M 387.5 335 L 382.5 341 L 387.5 335 Z " /><path fill="rgb(0,0,0)" stroke="rgb(0,0,0)" stroke-width="1" opacity="0.7803921568627451" d="M 126.5 337 L 129.5 341 L 126.5 337 Z " /><path fill="rgb(0,0,0)" stroke="rgb(0,0,0)" stroke-width="1" opacity="0.7803921568627451" d="M 380.5 341 L 378.5 344 L 380.5 341 Z " /><path fill="rgb(0,0,0)" stroke="rgb(0,0,0)" stroke-width="1" opacity="0.7803921568627451" d="M 132.5 342 L 133.5 344 L 132.5 342 Z " /><path fill="rgb(0,0,0)" stroke="rgb(0,0,0)" stroke-width="1" opacity="0.7803921568627451" d="M 376.5 344 L 375.5 346 L 376.5 344 Z " /><path fill="rgb(0,0,0)" stroke="rgb(0,0,0)" stroke-width="1" opacity="0.7803921568627451" d="M 136.5 345 L 137.5 347 L 136.5 345 Z " /><path fill="rgb(0,0,0)" stroke="rgb(0,0,0)" stroke-width="1" opacity="0.7803921568627451" d="M 373.5 346 L 372.5 348 L 373.5 346 Z " /><path fill="rgb(0,0,0)" stroke="rgb(0,0,0)" stroke-width="1" opacity="0.7803921568627451" d="M 141.5 348 L 142.5 350 L 141.5 348 Z " /><path fill="rgb(0,0,0)" stroke="rgb(0,0,0)" stroke-width="1" opacity="0.7803921568627451" d="M 368.5 349 L 367.5 351 L 368.5 349 Z " /><path fill="rgb(0,0,0)" stroke="rgb(0,0,0)" stroke-width="1" opacity="0.7803921568627451" d="M 76.5 355 L 81 355.5 L 76.5 356 L 76.5 355 Z " /><path fill="rgb(0,0,0)" stroke="rgb(0,0,0)" stroke-width="1" opacity="0.7803921568627451" d="M 84.5 356 L 87 356.5 L 84.5 357 L 84.5 356 Z " /><path fill="rgb(0,0,0)" stroke="rgb(0,0,0)" stroke-width="1" opacity="0.7803921568627451" d="M 99.5 362 L 100.5 364 L 99.5 362 Z " /><path fill="rgb(0,0,0)" stroke="rgb(0,0,0)" stroke-width="1" opacity="0.7803921568627451" d="M 91.5 363 L 94 363.5 L 91 364 L 92 367.5 L 90 366.5 L 91.5 363 Z " /><path fill="rgb(0,0,0)" stroke="rgb(0,0,0)" stroke-width="1" opacity="0.7803921568627451" d="M 95.5 364 L 96.5 366 L 95.5 364 Z " /><path fill="rgb(0,0,0)" stroke="rgb(0,0,0)" stroke-width="1" opacity="0.7803921568627451" d="M 102.5 364 L 103.5 366 L 102.5 364 Z " /><path fill="rgb(0,0,0)" stroke="rgb(0,0,0)" stroke-width="1" opacity="0.7803921568627451" d="M 180.5 364 L 183 364.5 L 180.5 365 L 180.5 364 Z " /><path fill="rgb(0,0,0)" stroke="rgb(0,0,0)" stroke-width="1" opacity="0.7803921568627451" d="M 70.5 365 L 72.5 368 L 70.5 365 Z " /><path fill="rgb(0,0,0)" stroke="rgb(0,0,0)" stroke-width="1" opacity="0.7803921568627451" d="M 324.5 365 L 327 365.5 L 324.5 366 L 324.5 365 Z " /><path fill="rgb(0,0,0)" stroke="rgb(0,0,0)" stroke-width="1" opacity="0.7803921568627451" d="M 105.5 366 L 114.5 376 L 105.5 366 Z " /><path fill="rgb(0,0,0)" stroke="rgb(0,0,0)" stroke-width="1" opacity="0.7803921568627451" d="M 189.5 366 L 192 366.5 L 189.5 367 L 189.5 366 Z " /><path fill="rgb(0,0,0)" stroke="rgb(0,0,0)" stroke-width="1" opacity="0.7803921568627451" d="M 196.5 367 L 199 367.5 L 196.5 368 L 196.5 367 Z " /><path fill="rgb(0,0,0)" stroke="rgb(0,0,0)" stroke-width="1" opacity="0.7803921568627451" d="M 312.5 367 L 316 367.5 L 312.5 368 L 312.5 367 Z " /><path fill="rgb(0,0,0)" stroke="rgb(0,0,0)" stroke-width="1" opacity="0.7803921568627451" d="M 93.5 368 L 96 368.5 L 93.5 369 L 93.5 368 Z " /><path fill="rgb(0,0,0)" stroke="rgb(0,0,0)" stroke-width="1" opacity="0.7803921568627451" d="M 203.5 368 L 206 368.5 L 203.5 369 L 203.5 368 Z " /><path fill="rgb(0,0,0)" stroke="rgb(0,0,0)" stroke-width="1" opacity="0.7803921568627451" d="M 305.5 368 L 309 368.5 L 305.5 369 L 305.5 368 Z " /><path fill="rgb(0,0,0)" stroke="rgb(0,0,0)" stroke-width="1" opacity="0.7803921568627451" d="M 208.5 369 L 207.5 371 L 208.5 369 Z " /><path fill="rgb(0,0,0)" stroke="rgb(0,0,0)" stroke-width="1" opacity="0.7803921568627451" d="M 76.5 370 L 77.5 372 L 76.5 370 Z " /><path fill="rgb(0,0,0)" stroke="rgb(0,0,0)" stroke-width="1" opacity="0.7803921568627451" d="M 81.5 373 L 83.5 376 L 81.5 373 Z " /><path fill="rgb(0,0,0)" stroke="rgb(0,0,0)" stroke-width="1" opacity="0.7803921568627451" d="M 307.5 374 L 309.5 377 L 307.5 374 Z " /><path fill="rgb(0,0,0)" stroke="rgb(0,0,0)" stroke-width="1" opacity="0.7803921568627451" d="M 203.5 375 L 202.5 377 L 203.5 375 Z " /><path fill="rgb(0,0,0)" stroke="rgb(0,0,0)" stroke-width="1" opacity="0.7803921568627451" d="M 107.5 378 L 106.5 380 L 104 379.5 L 107.5 378 Z " /><path fill="rgb(0,0,0)" stroke="rgb(0,0,0)" stroke-width="1" opacity="0.7803921568627451" d="M 200.5 380 L 199.5 382 L 200.5 380 Z " /><path fill="rgb(0,0,0)" stroke="rgb(0,0,0)" stroke-width="1" opacity="0.7803921568627451" d="M 90.5 382 L 92.5 385 L 90.5 382 Z " /><path fill="rgb(0,0,0)" stroke="rgb(0,0,0)" stroke-width="1" opacity="0.7803921568627451" d="M 119.5 383 L 120.5 385 L 119.5 383 Z " /><path fill="rgb(0,0,0)" stroke="rgb(0,0,0)" stroke-width="1" opacity="0.7803921568627451" d="M 115.5 385 L 116.5 387 L 115.5 385 Z " /><path fill="rgb(0,0,0)" stroke="rgb(0,0,0)" stroke-width="1" opacity="0.7803921568627451" d="M 93.5 386 L 94.5 388 L 93.5 386 Z " /><path fill="rgb(0,0,0)" stroke="rgb(0,0,0)" stroke-width="1" opacity="0.7803921568627451" d="M 121.5 386 L 122.5 388 L 121.5 386 Z " /><path fill="rgb(0,0,0)" stroke="rgb(0,0,0)" stroke-width="1" opacity="0.7803921568627451" d="M 110.5 387 L 111 389.5 L 110 389.5 L 110.5 387 Z " /><path fill="rgb(0,0,0)" stroke="rgb(0,0,0)" stroke-width="1" opacity="0.7803921568627451" d="M 117.5 388 Q 119.8 388.8 119 392.5 L 117 393.5 L 118 389.5 L 117.5 388 Z " /><path fill="rgb(0,0,0)" stroke="rgb(0,0,0)" stroke-width="1" opacity="0.7803921568627451" d="M 123.5 389 L 125.5 392 L 123.5 389 Z " /><path fill="rgb(0,0,0)" stroke="rgb(0,0,0)" stroke-width="1" opacity="0.7803921568627451" d="M 96.5 390 L 97.5 392 L 96.5 390 Z " /><path fill="rgb(0,0,0)" stroke="rgb(0,0,0)" stroke-width="1" opacity="0.7803921568627451" d="M 111.5 391 L 113.5 394 L 111.5 391 Z " /><path fill="rgb(0,0,0)" stroke="rgb(0,0,0)" stroke-width="1" opacity="0.7803921568627451" d="M 127.5 394 L 131.5 399 L 127.5 394 Z " /><path fill="rgb(0,0,0)" stroke="rgb(0,0,0)" stroke-width="1" opacity="0.7803921568627451" d="M 101.5 399 L 103 401.5 L 102 401.5 L 101.5 399 Z " /><path fill="rgb(0,0,0)" stroke="rgb(0,0,0)" stroke-width="1" opacity="0.7803921568627451" d="M 128.5 400 L 131.5 404 L 128.5 400 Z " /><path fill="rgb(0,0,0)" stroke="rgb(0,0,0)" stroke-width="1" opacity="0.7803921568627451" d="M 134.5 400 L 135.5 402 L 134.5 400 Z " /><path fill="rgb(0,0,0)" stroke="rgb(0,0,0)" stroke-width="1" opacity="0.7803921568627451" d="M 122.5 402 Q 122.9 407.1 127 408.5 L 122 404.5 L 122.5 402 Z " /><path fill="rgb(0,0,0)" stroke="rgb(0,0,0)" stroke-width="1" opacity="0.7803921568627451" d="M 319.5 406 L 320 414.5 L 319 414.5 L 319.5 406 Z " /><path fill="rgb(0,0,0)" stroke="rgb(0,0,0)" stroke-width="1" opacity="0.7803921568627451" d="M 131.5 407 L 130.5 409 L 131.5 407 Z " /><path fill="rgb(0,0,0)" stroke="rgb(0,0,0)" stroke-width="1" opacity="0.7803921568627451" d="M 174.5 408 L 178 408.5 L 174.5 409 L 174.5 408 Z " /><path fill="rgb(0,0,0)" stroke="rgb(0,0,0)" stroke-width="1" opacity="0.7803921568627451" d="M 153.5 409 L 158 409.5 L 153.5 410 L 153.5 409 Z " /><path fill="rgb(0,0,0)" stroke="rgb(0,0,0)" stroke-width="1" opacity="0.7803921568627451" d="M 162.5 409 L 170 409.5 L 162.5 410 L 162.5 409 Z " /><path fill="rgb(0,0,0)" stroke="rgb(0,0,0)" stroke-width="1" opacity="0.7803921568627451" d="M 141.5 411 L 140.5 413 L 141.5 411 Z " /><path fill="rgb(0,0,0)" stroke="rgb(0,0,0)" stroke-width="1" opacity="0.7803921568627451" d="M 148.5 412 L 149.5 414 L 148.5 412 Z " /><path fill="rgb(0,0,0)" stroke="rgb(0,0,0)" stroke-width="1" opacity="0.7803921568627451" d="M 163.5 414 L 169 414.5 L 163.5 415 L 163.5 414 Z " /><path fill="rgb(0,0,0)" stroke="rgb(0,0,0)" stroke-width="1" opacity="0.7803921568627451" d="M 190.5 414 L 191 416.5 L 189 417.5 L 190.5 414 Z " /><path fill="rgb(0,0,0)" stroke="rgb(0,0,0)" stroke-width="1" opacity="0.7803921568627451" d="M 140.5 416 L 143 417.5 L 141.5 418 L 140.5 416 Z " /><path fill="rgb(0,0,0)" stroke="rgb(0,0,0)" stroke-width="1" opacity="0.7803921568627451" d="M 149.5 417 L 148.5 419 L 147 418.5 L 149.5 417 Z " /><path fill="rgb(0,0,0)" stroke="rgb(0,0,0)" stroke-width="1" opacity="0.7803921568627451" d="M 0.5 418 L 1 426.5 L 0 426.5 L 0.5 418 Z " /><path fill="rgb(0,0,0)" stroke="rgb(0,0,0)" stroke-width="1" opacity="0.7803921568627451" d="M 110.5 418 L 111.5 420 L 110.5 418 Z " /><path fill="rgb(0,0,0)" stroke="rgb(0,0,0)" stroke-width="1" opacity="0.7803921568627451" d="M 511.5 418 L 512 426.5 L 511 426.5 L 511.5 418 Z " /><path fill="rgb(0,0,0)" stroke="rgb(0,0,0)" stroke-width="1" opacity="0.7803921568627451" d="M 182.5 419 L 186 419.5 L 182.5 420 L 182.5 419 Z " /><path fill="rgb(0,0,0)" stroke="rgb(0,0,0)" stroke-width="1" opacity="0.7803921568627451" d="M 112.5 421 L 119.5 429 L 112.5 421 Z " /><path fill="rgb(0,0,0)" stroke="rgb(0,0,0)" stroke-width="1" opacity="0.7803921568627451" d="M 163.5 421 L 168 421.5 L 163.5 422 L 163.5 421 Z " /><path fill="rgb(0,0,0)" stroke="rgb(0,0,0)" stroke-width="1" opacity="0.7803921568627451" d="M 122.5 430 L 123.5 432 L 122.5 430 Z " /><path fill="rgb(0,0,0)" stroke="rgb(0,0,0)" stroke-width="1" opacity="0.7803921568627451" d="M 1.5 431 L 2 433.5 L 1 433.5 L 1.5 431 Z " /><path fill="rgb(0,0,0)" stroke="rgb(0,0,0)" stroke-width="1" opacity="0.7803921568627451" d="M 510.5 431 L 511 433.5 L 510 433.5 L 510.5 431 Z " /><path fill="rgb(0,0,0)" stroke="rgb(0,0,0)" stroke-width="1" opacity="0.7803921568627451" d="M 129.5 434 L 130.5 436 L 129.5 434 Z " /><path fill="rgb(0,0,0)" stroke="rgb(0,0,0)" stroke-width="1" opacity="0.7803921568627451" d="M 143.5 439 L 146 439.5 L 143.5 440 L 143.5 439 Z " /><path fill="rgb(0,0,0)" stroke="rgb(0,0,0)" stroke-width="1" opacity="0.7803921568627451" d="M 189.5 439 L 192 439.5 L 189.5 440 L 189.5 439 Z " /><path fill="rgb(0,0,0)" stroke="rgb(0,0,0)" stroke-width="1" opacity="0.7803921568627451" d="M 150.5 440 L 153 440.5 L 150.5 441 L 150.5 440 Z " /><path fill="rgb(0,0,0)" stroke="rgb(0,0,0)" stroke-width="1" opacity="0.7803921568627451" d="M 182.5 440 L 186 440.5 L 182.5 441 L 182.5 440 Z " /><path fill="rgb(0,0,0)" stroke="rgb(0,0,0)" stroke-width="1" opacity="0.7803921568627451" d="M 159.5 441 L 178 441.5 L 159.5 442 L 159.5 441 Z " /><path fill="rgb(0,0,0)" stroke="rgb(0,0,0)" stroke-width="1" opacity="0.7803921568627451" d="M 192.5 453 L 193 499.5 L 192 499.5 L 192.5 453 Z " /><path fill="rgb(0,0,0)" stroke="rgb(0,0,0)" stroke-width="1" opacity="0.7803921568627451" d="M 12.5 463 L 13.5 465 L 12.5 463 Z " /><path fill="rgb(0,0,0)" stroke="rgb(0,0,0)" stroke-width="1" opacity="0.7803921568627451" d="M 499.5 463 L 498.5 465 L 499.5 463 Z " /><path fill="rgb(0,0,0)" stroke="rgb(0,0,0)" stroke-width="1" opacity="0.7803921568627451" d="M 15.5 468 L 16.5 470 L 15.5 468 Z " /><path fill="rgb(0,0,0)" stroke="rgb(0,0,0)" stroke-width="1" opacity="0.7803921568627451" d="M 496.5 468 L 495.5 470 L 496.5 468 Z " /><path fill="rgb(0,0,0)" stroke="rgb(0,0,0)" stroke-width="1" opacity="0.7803921568627451" d="M 18.5 472 L 19.5 474 L 18.5 472 Z " /><path fill="rgb(0,0,0)" stroke="rgb(0,0,0)" stroke-width="1" opacity="0.7803921568627451" d="M 493.5 472 L 492.5 474 L 493.5 472 Z " /><path fill="rgb(0,0,0)" stroke="rgb(0,0,0)" stroke-width="1" opacity="0.7803921568627451" d="M 21.5 476 L 26.5 482 L 21.5 476 Z " /><path fill="rgb(0,0,0)" stroke="rgb(0,0,0)" stroke-width="1" opacity="0.7803921568627451" d="M 490.5 476 L 485.5 482 L 490.5 476 Z " /><path fill="rgb(0,0,0)" stroke="rgb(0,0,0)" stroke-width="1" opacity="0.7803921568627451" d="M 30.5 485 L 35.5 491 L 30.5 485 Z " /><path fill="rgb(0,0,0)" stroke="rgb(0,0,0)" stroke-width="1" opacity="0.7803921568627451" d="M 481.5 485 L 476.5 491 L 481.5 485 Z " /><path fill="rgb(0,0,0)" stroke="rgb(0,0,0)" stroke-width="1" opacity="0.7803921568627451" d="M 38.5 492 L 39.5 494 L 38.5 492 Z " /><path fill="rgb(0,0,0)" stroke="rgb(0,0,0)" stroke-width="1" opacity="0.7803921568627451" d="M 473.5 492 L 472.5 494 L 473.5 492 Z " /><path fill="rgb(0,0,0)" stroke="rgb(0,0,0)" stroke-width="1" opacity="0.7803921568627451" d="M 42.5 495 L 43.5 497 L 42.5 495 Z " /><path fill="rgb(0,0,0)" stroke="rgb(0,0,0)" stroke-width="1" opacity="0.7803921568627451" d="M 469.5 495 L 468.5 497 L 469.5 495 Z " /><path fill="rgb(0,0,0)" stroke="rgb(0,0,0)" stroke-width="1" opacity="0.7803921568627451" d="M 47.5 498 L 48.5 500 L 47.5 498 Z " /><path fill="rgb(0,0,0)" stroke="rgb(0,0,0)" stroke-width="1" opacity="0.7803921568627451" d="M 464.5 498 L 463.5 500 L 464.5 498 Z " /><path fill="rgb(0,0,0)" stroke="rgb(0,0,0)" stroke-width="1" opacity="0.7803921568627451" d="M 321.5 504 L 325 508.5 L 321 505.5 L 321.5 504 Z " /><path fill="rgb(0,0,0)" stroke="rgb(0,0,0)" stroke-width="1" opacity="0.7803921568627451" d="M 189.5 506 L 188.5 508 L 189.5 506 Z " /><path fill="rgb(0,0,0)" stroke="rgb(0,0,0)" stroke-width="1" opacity="0.7803921568627451" d="M 436.5 509 L 439 509.5 L 436.5 510 L 436.5 509 Z " /><path fill="rgb(0,0,0)" stroke="rgb(0,0,0)" stroke-width="1" opacity="0.7803921568627451" d="M 78.5 510 L 81 510.5 L 78.5 511 L 78.5 510 Z " /><path fill="rgb(0,0,0)" stroke="rgb(0,0,0)" stroke-width="1" opacity="0.7803921568627451" d="M 430.5 510 L 434 510.5 L 430.5 511 L 430.5 510 Z " /><path fill="rgb(0,0,0)" stroke="rgb(0,0,0)" stroke-width="1" opacity="0.7803921568627451" d="M 85.5 511 L 94 511.5 L 85.5 512 L 85.5 511 Z " /><path fill="rgb(0,0,0)" stroke="rgb(0,0,0)" stroke-width="1" opacity="0.7803921568627451" d="M 173.5 511 L 182 511.5 L 173.5 512 L 173.5 511 Z " /><path fill="rgb(0,0,0)" stroke="rgb(0,0,0)" stroke-width="1" opacity="0.7803921568627451" d="M 332.5 511 L 339 511.5 L 332.5 512 L 332.5 511 Z " /><path fill="rgb(0,0,0)" stroke="rgb(0,0,0)" stroke-width="1" opacity="0.7803921568627451" d="M 418.5 511 L 427 511.5 L 418.5 512 L 418.5 511 Z " /><path fill="rgb(0,0,0)" stroke="rgb(0,0,0)" stroke-width="1" opacity="1" d="M 94.5 0 L 417.5 0 L 418.5 1 L 436.5 2 L 452.5 7 Q 471.7 15.3 485 29.5 Q 497.4 42.1 505 59.5 L 510 75.5 L 511 93.5 L 512 94.5 L 512 417.5 L 511 418.5 L 510 436.5 L 505 452.5 Q 496.7 471.7 482.5 485 Q 464.7 503.2 435.5 510 L 418.5 511 L 417.5 512 L 339.5 512 L 338.5 511 L 327.5 510 L 322 505.5 L 320 500.5 L 320 406.5 L 315 385.5 Q 311 375.5 303 369.5 L 335.5 364 L 355.5 357 Q 380.1 346.6 396 327.5 L 406 311.5 L 414 290.5 L 419 263.5 L 420 237.5 L 419 236.5 L 419 226.5 L 414 206.5 Q 406.8 187.7 394 174.5 L 394 171.5 L 398 159.5 L 399 137.5 L 395 117.5 L 389.5 105 L 377.5 105 L 360.5 110 L 344.5 117 L 320.5 132 L 318.5 132 L 305.5 128 L 288.5 125 L 249.5 123 L 248.5 124 L 223.5 125 L 191.5 132 L 178.5 123 L 150.5 110 L 134.5 105 L 122.5 105 Q 111.7 122.7 113 152.5 L 118 174.5 Q 105.2 187.7 98 206.5 L 93 226.5 L 92 249.5 L 93 250.5 L 93 263.5 L 94 264.5 L 95 277.5 L 103 304.5 Q 111.9 327.1 129.5 341 Q 144.2 352.8 163.5 360 L 189.5 367 L 195.5 367 L 208 369.5 L 197 385.5 L 194 394.5 L 193 402.5 L 191.5 404 L 179.5 408 L 158.5 410 L 147.5 408 L 137.5 403 L 126 392.5 L 115 375.5 L 105.5 366 L 86.5 356 L 76.5 355 L 71.5 356 L 68 358.5 L 68 361.5 L 72.5 368 L 84.5 376 L 90 381.5 L 98 392.5 L 110 418.5 L 119.5 429 Q 128.8 437.2 143.5 440 L 158.5 441 L 159.5 442 L 177.5 442 L 178.5 441 L 192 440 L 192 501.5 L 185.5 510 L 173.5 511 L 172.5 512 L 94.5 512 L 93.5 511 L 75.5 510 L 59.5 505 Q 40.3 496.7 27 482.5 Q 14.6 469.9 7 452.5 L 2 436.5 L 1 418.5 L 0 417.5 L 0 94.5 L 1 93.5 L 2 75.5 L 7 59.5 Q 15.3 40.3 29.5 27 Q 42.1 14.6 59.5 7 L 75.5 2 L 93.5 1 L 94.5 0 Z " /><path fill="rgb(0,0,0)" stroke="rgb(0,0,0)" stroke-width="1" opacity="1" d="M 91 364 Q 95.7 363 97 366.5 Q 97.9 369.9 92.5 368 L 91 364 Z " /><path fill="rgb(0,0,0)" stroke="rgb(0,0,0)" stroke-width="1" opacity="1" d="M 102.5 372 L 107 374.5 L 108 377.5 Q 107.3 379.8 103.5 379 L 101 373.5 L 102.5 372 Z " /><path fill="rgb(0,0,0)" stroke="rgb(0,0,0)" stroke-width="1" opacity="1" d="M 113.5 385 L 117 387.5 L 118 392.5 L 114.5 394 Q 109.8 392.4 111 386 L 113.5 385 Z " /><path fill="rgb(0,0,0)" stroke="rgb(0,0,0)" stroke-width="1" opacity="1" d="M 124.5 400 L 127.5 400 L 132 404.5 Q 132.5 408.5 129.5 409 L 127.5 409 L 123 404.5 Q 122.3 400.8 124.5 400 Z " /><path fill="rgb(0,0,0)" stroke="rgb(0,0,0)" stroke-width="1" opacity="1" d="M 142.5 411 Q 148.7 410.3 150 414.5 L 148.5 418 L 146.5 419 L 140 415.5 Q 139.5 411.5 142.5 411 Z " /><path fill="rgb(0,0,0)" stroke="rgb(0,0,0)" stroke-width="1" opacity="1" d="M 183.5 412 Q 188.8 410.8 190 413.5 Q 190.8 417.3 188.5 418 L 181 419 L 180 415.5 L 181 413 L 183.5 412 Z " /><path fill="rgb(0,0,0)" stroke="rgb(0,0,0)" stroke-width="1" opacity="1" d="M 162.5 415 Q 169.3 413.2 171 416.5 Q 171.8 420.3 169.5 421 Q 162.8 422.8 161 419.5 Q 160.3 415.8 162.5 415 Z " /><path fill="rgb(0,0,0)" stroke="rgb(0,0,0)" stroke-width="1" opacity="0" d="M 0 0 L 85 0.5 Q 62.9 2.4 48.5 12 Q 32.4 21.4 21 35.5 Q 11.9 46.4 6 60.5 Q 1.5 71 0.5 85 L 0 0 Z " /><path fill="rgb(0,0,0)" stroke="rgb(0,0,0)" stroke-width="1" opacity="0" d="M 427.5 0 L 512 0 L 512 84.5 L 511 84.5 L 509 69.5 L 500 48.5 Q 490.6 32.4 476.5 21 Q 465.6 11.9 451.5 6 L 438.5 2 L 427.5 1 L 427.5 0 Z " /><path fill="rgb(0,0,0)" stroke="rgb(0,0,0)" stroke-width="1" opacity="0" d="M 125.5 105 L 136.5 106 L 149.5 110 L 179.5 124 L 191.5 132 L 195.5 132 L 208.5 128 L 227.5 126 L 228.5 125 L 237.5 125 L 238.5 124 L 273.5 124 L 274.5 125 L 283.5 125 L 284.5 126 L 303.5 128 L 316.5 132 L 320.5 132 L 345.5 117 L 359.5 111 L 374.5 106 L 386.5 105 L 391 107.5 L 398 132.5 L 398 156.5 L 393 174.5 Q 409 190 416 214.5 L 419 230.5 L 419 258.5 L 418 259.5 L 418 268.5 L 417 269.5 L 416 280.5 L 409 303.5 Q 401.7 322.2 388.5 335 Q 372.1 350.2 349.5 359 L 333.5 364 Q 324.9 363.9 319.5 367 L 305.5 368 L 303 369.5 L 312 380.5 Q 317 389.5 319 401.5 L 319 414.5 L 320 415.5 L 320 502.5 L 324.5 509 L 332 511.5 L 182.5 512 L 182.5 511 L 184.5 511 L 190 506.5 L 193 499.5 L 193 453.5 L 192 452.5 L 192 439 L 181.5 441 L 153.5 441 L 131.5 436 Q 119.6 430.4 112 420.5 L 98 391.5 L 81.5 373 Q 74.1 370.4 70 364.5 Q 67.4 363.1 68 358.5 Q 72.5 354 83.5 356 Q 104.7 361.8 116 377.5 Q 121.8 390.2 131.5 399 Q 139 405.5 149.5 409 Q 157.4 411.6 169.5 410 L 170.5 409 L 181.5 408 L 193 404 Q 195.3 381.6 209 369.5 L 205.5 368 L 192.5 367 L 178.5 364 L 159.5 358 Q 136.8 348.8 121 332.5 L 111 319.5 L 104 305.5 L 97 284.5 L 94 268.5 L 94 259.5 L 93 258.5 L 93 230.5 L 96 214.5 L 101 200.5 Q 107.8 185.3 119 174.5 L 119 172.5 L 114 156.5 L 114 132.5 L 118 114.5 L 121 106 L 125.5 105 Z M 92 363 L 90 367 L 96 369 L 97 366 L 92 363 Z M 101 372 L 100 375 L 102 379 L 107 380 Q 109 379 108 376 Q 107 371 101 372 Z M 113 385 L 110 388 L 111 392 L 116 395 L 119 393 Q 120 388 117 387 Q 116 384 113 385 Z M 126 399 L 123 400 L 122 405 L 127 409 L 131 409 Q 133 408 132 404 L 126 399 Z M 142 411 L 139 415 L 140 417 Q 142 420 149 419 Q 151 418 150 414 Q 148 410 142 411 Z M 187 411 L 183 412 L 180 415 Q 179 419 183 420 L 190 418 L 191 415 L 187 411 Z M 164 414 L 161 415 L 160 418 L 161 421 L 164 422 L 170 421 Q 172 420 171 415 Q 169 413 164 414 Z " /><path fill="rgb(0,0,0)" stroke="rgb(0,0,0)" stroke-width="1" opacity="0" d="M 0.5 427 Q 2.4 449.1 12 463.5 Q 21.4 479.6 35.5 491 Q 46.4 500.1 60.5 506 Q 71 510.5 85 511.5 L 0 512 L 0.5 427 Z " /><path fill="rgb(0,0,0)" stroke="rgb(0,0,0)" stroke-width="1" opacity="0" d="M 511.5 427 L 512 512 L 427 511.5 Q 449.1 509.6 463.5 500 Q 479.6 490.6 491 476.5 Q 500.1 465.6 506 451.5 Q 510.5 441 511.5 427 Z " /></svg>